<svg xmlns="http://www.w3.org/2000/svg" viewBox="0 0 800 600">
  <defs>
    <filter id="tech-glow">
      <feGaussianBlur stdDeviation="5" result="blur"/>
      <feFlood flood-color="#00F0FF" flood-opacity="0.6" result="color"/>
      <feComposite in="color" in2="blur" operator="in" result="shadow"/>
      <feMerge>
        <feMergeNode in="shadow"/>
        <feMergeNode in="shadow"/>
        <feMergeNode in="SourceGraphic"/>
      </feMerge>
    </filter>
    <filter id="tech-glow-pink">
      <feGaussianBlur stdDeviation="5" result="blur"/>
      <feFlood flood-color="#FF2D78" flood-opacity="0.5" result="color"/>
      <feComposite in="color" in2="blur" operator="in" result="shadow"/>
      <feMerge>
        <feMergeNode in="shadow"/>
        <feMergeNode in="SourceGraphic"/>
      </feMerge>
    </filter>
    <radialGradient id="chip-glow" cx="50%" cy="50%" r="45%">
      <stop offset="0%" stop-color="#00F0FF" stop-opacity="0.08"/>
      <stop offset="100%" stop-color="#0A0A1A" stop-opacity="0"/>
    </radialGradient>
  </defs>
  <rect width="800" height="600" fill="#0A0A1A"/>
  <rect width="800" height="600" fill="url(#chip-glow)"/>
  <!-- Central chip/processor -->
  <rect x="320" y="200" width="160" height="160" rx="8" fill="#0d0d2b" stroke="#00F0FF" stroke-width="2" filter="url(#tech-glow)"/>
  <!-- Inner chip details -->
  <rect x="345" y="225" width="110" height="110" rx="4" fill="none" stroke="#00F0FF" stroke-width="0.8" opacity="0.4"/>
  <rect x="360" y="240" width="80" height="80" rx="2" fill="none" stroke="#00F0FF" stroke-width="0.5" opacity="0.3"/>
  <!-- Chip core pattern -->
  <line x1="370" y1="260" x2="430" y2="260" stroke="#00F0FF" stroke-width="0.5" opacity="0.4"/>
  <line x1="370" y1="275" x2="430" y2="275" stroke="#00F0FF" stroke-width="0.5" opacity="0.35"/>
  <line x1="370" y1="290" x2="430" y2="290" stroke="#00F0FF" stroke-width="0.5" opacity="0.4"/>
  <line x1="370" y1="305" x2="430" y2="305" stroke="#00F0FF" stroke-width="0.5" opacity="0.35"/>
  <line x1="385" y1="245" x2="385" y2="315" stroke="#00F0FF" stroke-width="0.5" opacity="0.3"/>
  <line x1="400" y1="245" x2="400" y2="315" stroke="#00F0FF" stroke-width="0.5" opacity="0.35"/>
  <line x1="415" y1="245" x2="415" y2="315" stroke="#00F0FF" stroke-width="0.5" opacity="0.3"/>
  <!-- Core glow -->
  <circle cx="400" cy="280" r="15" fill="#00F0FF" opacity="0.06"/>
  <circle cx="400" cy="280" r="5" fill="#00F0FF" opacity="0.15" filter="url(#tech-glow)"/>
  <!-- Pins - Top -->
  <line x1="350" y1="200" x2="350" y2="170" stroke="#00F0FF" stroke-width="1.5" opacity="0.5"/>
  <line x1="370" y1="200" x2="370" y2="170" stroke="#00F0FF" stroke-width="1.5" opacity="0.5"/>
  <line x1="390" y1="200" x2="390" y2="170" stroke="#00F0FF" stroke-width="1.5" opacity="0.5"/>
  <line x1="410" y1="200" x2="410" y2="170" stroke="#00F0FF" stroke-width="1.5" opacity="0.5"/>
  <line x1="430" y1="200" x2="430" y2="170" stroke="#00F0FF" stroke-width="1.5" opacity="0.5"/>
  <line x1="450" y1="200" x2="450" y2="170" stroke="#00F0FF" stroke-width="1.5" opacity="0.5"/>
  <!-- Pins - Bottom -->
  <line x1="350" y1="360" x2="350" y2="390" stroke="#00F0FF" stroke-width="1.5" opacity="0.5"/>
  <line x1="370" y1="360" x2="370" y2="390" stroke="#00F0FF" stroke-width="1.5" opacity="0.5"/>
  <line x1="390" y1="360" x2="390" y2="390" stroke="#00F0FF" stroke-width="1.5" opacity="0.5"/>
  <line x1="410" y1="360" x2="410" y2="390" stroke="#00F0FF" stroke-width="1.5" opacity="0.5"/>
  <line x1="430" y1="360" x2="430" y2="390" stroke="#00F0FF" stroke-width="1.5" opacity="0.5"/>
  <line x1="450" y1="360" x2="450" y2="390" stroke="#00F0FF" stroke-width="1.5" opacity="0.5"/>
  <!-- Pins - Left -->
  <line x1="320" y1="230" x2="290" y2="230" stroke="#00F0FF" stroke-width="1.5" opacity="0.5"/>
  <line x1="320" y1="250" x2="290" y2="250" stroke="#00F0FF" stroke-width="1.5" opacity="0.5"/>
  <line x1="320" y1="270" x2="290" y2="270" stroke="#00F0FF" stroke-width="1.5" opacity="0.5"/>
  <line x1="320" y1="290" x2="290" y2="290" stroke="#00F0FF" stroke-width="1.5" opacity="0.5"/>
  <line x1="320" y1="310" x2="290" y2="310" stroke="#00F0FF" stroke-width="1.5" opacity="0.5"/>
  <line x1="320" y1="330" x2="290" y2="330" stroke="#00F0FF" stroke-width="1.5" opacity="0.5"/>
  <!-- Pins - Right -->
  <line x1="480" y1="230" x2="510" y2="230" stroke="#00F0FF" stroke-width="1.5" opacity="0.5"/>
  <line x1="480" y1="250" x2="510" y2="250" stroke="#00F0FF" stroke-width="1.5" opacity="0.5"/>
  <line x1="480" y1="270" x2="510" y2="270" stroke="#00F0FF" stroke-width="1.5" opacity="0.5"/>
  <line x1="480" y1="290" x2="510" y2="290" stroke="#00F0FF" stroke-width="1.5" opacity="0.5"/>
  <line x1="480" y1="310" x2="510" y2="310" stroke="#00F0FF" stroke-width="1.5" opacity="0.5"/>
  <line x1="480" y1="330" x2="510" y2="330" stroke="#00F0FF" stroke-width="1.5" opacity="0.5"/>
  <!-- Circuit traces from pins -->
  <!-- Top traces -->
  <path d="M350,170 L350,140 L250,140 L250,120" fill="none" stroke="#00F0FF" stroke-width="0.8" opacity="0.3"/>
  <path d="M390,170 L390,130 L340,130 L340,100" fill="none" stroke="#B24BF3" stroke-width="0.8" opacity="0.25"/>
  <path d="M430,170 L430,130 L520,130 L520,100" fill="none" stroke="#FF2D78" stroke-width="0.8" opacity="0.25"/>
  <path d="M450,170 L450,140 L550,140 L550,120" fill="none" stroke="#00F0FF" stroke-width="0.8" opacity="0.3"/>
  <!-- Bottom traces -->
  <path d="M350,390 L350,420 L250,420 L250,460" fill="none" stroke="#00F0FF" stroke-width="0.8" opacity="0.3"/>
  <path d="M410,390 L410,440 L480,440 L480,470" fill="none" stroke="#B24BF3" stroke-width="0.8" opacity="0.25"/>
  <path d="M450,390 L450,420 L550,420 L550,460" fill="none" stroke="#00F0FF" stroke-width="0.8" opacity="0.3"/>
  <!-- Left traces -->
  <path d="M290,230 L250,230 L250,180 L200,180" fill="none" stroke="#FF2D78" stroke-width="0.8" opacity="0.25"/>
  <path d="M290,270 L230,270 L230,250 L180,250" fill="none" stroke="#00F0FF" stroke-width="0.8" opacity="0.3"/>
  <path d="M290,310 L250,310 L250,370 L200,370" fill="none" stroke="#B24BF3" stroke-width="0.8" opacity="0.25"/>
  <!-- Right traces -->
  <path d="M510,230 L550,230 L550,180 L600,180" fill="none" stroke="#00F0FF" stroke-width="0.8" opacity="0.3"/>
  <path d="M510,290 L570,290 L570,310 L620,310" fill="none" stroke="#FF2D78" stroke-width="0.8" opacity="0.25"/>
  <path d="M510,330 L550,330 L550,380 L600,380" fill="none" stroke="#B24BF3" stroke-width="0.8" opacity="0.25"/>
  <!-- Endpoint nodes -->
  <circle cx="250" cy="120" r="3" fill="#00F0FF" opacity="0.4"/>
  <circle cx="340" cy="100" r="3" fill="#B24BF3" opacity="0.35"/>
  <circle cx="520" cy="100" r="3" fill="#FF2D78" opacity="0.35"/>
  <circle cx="550" cy="120" r="3" fill="#00F0FF" opacity="0.4"/>
  <circle cx="200" cy="180" r="3" fill="#FF2D78" opacity="0.35"/>
  <circle cx="180" cy="250" r="3" fill="#00F0FF" opacity="0.4"/>
  <circle cx="200" cy="370" r="3" fill="#B24BF3" opacity="0.35"/>
  <circle cx="600" cy="180" r="3" fill="#00F0FF" opacity="0.4"/>
  <circle cx="620" cy="310" r="3" fill="#FF2D78" opacity="0.35"/>
  <circle cx="600" cy="380" r="3" fill="#B24BF3" opacity="0.35"/>
  <circle cx="250" cy="460" r="3" fill="#00F0FF" opacity="0.4"/>
  <circle cx="480" cy="470" r="3" fill="#B24BF3" opacity="0.35"/>
  <circle cx="550" cy="460" r="3" fill="#00F0FF" opacity="0.4"/>
  <!-- Data flow indicators -->
  <circle cx="300" cy="140" r="1.5" fill="#00F0FF" opacity="0.6"/>
  <circle cx="485" cy="130" r="1.5" fill="#FF2D78" opacity="0.5"/>
  <circle cx="220" cy="270" r="1.5" fill="#00F0FF" opacity="0.5"/>
  <circle cx="570" cy="230" r="1.5" fill="#00F0FF" opacity="0.5"/>
  <!-- Label -->
  <text x="400" y="540" text-anchor="middle" font-family="'Courier New', monospace" font-size="20" font-weight="bold" fill="#00F0FF" filter="url(#tech-glow)" letter-spacing="8">TECHNOLOGY</text>
</svg>